# xmcd CD database file
#
# Track frame offsets:
#	150
#	23197
#	55564
#	75832
#	101917
#	124638
#	135151
#	145959
#	160634
#	176826
#
# Disc length: 2545 seconds
#
# Revision: 0
# Processed by: cddbd v1.5.2PL0 Copyright (c) Steve Scherf et al.
# Submitted via: CDex 1.51
#
DISCID=7309ef0a
DTITLE=Michal Urbaniak - Atma
DYEAR=1900
DGENRE=Jazz
TTITLE0=Mazurka
TTITLE1=Butterfly
TTITLE2=Largo
TTITLE3=Ilex
TTITLE4=New York Satsa
TTITLE5=Kama (Part I)
TTITLE6=Kama (Part II)
TTITLE7=Atma - Yesterday
TTITLE8=Atma - Today
TTITLE9=Atma - Tomorrow
EXTD=
EXTT0=
EXTT1=
EXTT2=
EXTT3=
EXTT4=
EXTT5=
EXTT6=
EXTT7=
EXTT8=
EXTT9=
PLAYORDER=
